<?xml version="1.0" encoding="UTF-8"?>
<svg id="Layer_2" data-name="Layer 2" xmlns="http://www.w3.org/2000/svg" viewBox="0 0 548.46 197.51">
  <defs>
    <style>
      .cls-1 {
        fill: #a17f4d;
      }
    </style>
  </defs>
  <g id="Layer_1-2" data-name="Layer 1">
    <g>
      <path class="cls-1" d="M12.86,124.94h-.02c-.06-.04-.09-.08-.11-.11l-11.24-15.58-.06,15.2c-.01.46-.25.7-.72.7-.2,0-.37-.07-.51-.21-.14-.14-.21-.31-.21-.51l.08-17.22c-.08-.31,0-.57.27-.78.13-.08.27-.13.42-.13.27,0,.46.11.59.32l11.34,15.68.08-15.11c0-.46.24-.7.72-.7.2,0,.37.07.53.21.14.13.21.29.21.48l-.08,17.33c-.01.46-.27.7-.76.7-.22,0-.41-.09-.55-.27Z"/>
      <path class="cls-1" d="M28.77,125c-.14-.14-.21-.31-.21-.51l.08-17.39c0-.24.1-.42.29-.55,0-.01.01-.03.04-.04.01,0,.02,0,.02-.02.13-.08.27-.13.42-.13.25,0,.45.11.59.32v.02l.08,2.36-.08,15.45c0,.46-.24.7-.72.7-.21,0-.39-.07-.53-.21Z"/>
      <path class="cls-1" d="M53.93,125.21c-2.75-.03-5.09-.98-7.02-2.85-1.94-1.88-2.9-4.16-2.89-6.83.01-2.61.99-4.85,2.93-6.72,1.95-1.86,4.29-2.78,7.02-2.78h.06c2.29.01,4.36.74,6.2,2.17.15.11.24.27.25.48.01.2-.04.37-.17.51-.14.17-.33.25-.57.25-.16,0-.31-.05-.46-.15-1.48-1.21-3.23-1.82-5.25-1.83h-.06c-2.33,0-4.33.79-5.99,2.36-1.66,1.59-2.49,3.5-2.51,5.73-.01,2.25.81,4.18,2.47,5.8,1.66,1.6,3.66,2.41,6.01,2.42h.04c1.83,0,3.47-.52,4.93-1.56l.02-5.44-5.12-.02c-.51,0-.75-.24-.74-.72,0-.48.25-.72.74-.72l5.97.02c.44.04.65.29.65.74l-.04,6.56c-.04.24-.13.41-.27.53-1.77,1.36-3.82,2.04-6.13,2.04h-.06Z"/>
      <path class="cls-1" d="M87.35,125.21c-.18,0-.34-.07-.49-.21s-.21-.31-.21-.51l.04-8.03-9.68-.06-.04,8.05c0,.46-.25.7-.74.7-.2,0-.37-.07-.51-.21-.14-.14-.21-.3-.21-.48l.08-17.52c0-.46.24-.7.72-.7s.74.24.74.72l-.04,8.03,9.68.06.04-8.05c0-.46.24-.7.72-.7s.74.23.74.7l-.08,17.52c0,.46-.25.7-.74.7h-.02Z"/>
      <path class="cls-1" d="M109.03,125c-.14-.14-.21-.31-.21-.51l.08-16.76-5.67-.04c-.48,0-.72-.25-.72-.74,0-.46.24-.7.72-.7l12.79.06c.18,0,.34.07.49.21.14.14.21.31.21.51,0,.48-.24.72-.72.72l-5.67-.02-.08,16.78c0,.46-.24.7-.72.7-.2,0-.37-.07-.51-.21Z"/>
      <path class="cls-1" d="M143.8,125.21c-2.14-.01-3.96-.77-5.46-2.28-1.5-1.5-2.25-3.31-2.23-5.42l.06-10.56c0-.46.23-.7.7-.7.22,0,.41.07.55.21.14.14.21.31.21.51l-.06,10.54c-.01,1.7.59,3.16,1.81,4.38s2.7,1.85,4.43,1.88c1.76,0,3.25-.61,4.49-1.83,1.25-1.21,1.88-2.66,1.88-4.36l.06-10.54c0-.48.24-.72.72-.72.2,0,.37.07.53.21.14.14.21.31.21.51l-.06,10.56c-.01,2.09-.78,3.89-2.3,5.38-1.52,1.49-3.34,2.23-5.48,2.23h-.04Z"/>
      <path class="cls-1" d="M180.34,124.94h-.02c-.06-.04-.09-.08-.11-.11l-11.24-15.58-.06,15.2c-.01.46-.25.7-.72.7-.2,0-.37-.07-.51-.21-.14-.14-.21-.31-.21-.51l.08-17.22c-.08-.31,0-.57.27-.78.13-.08.27-.13.42-.13.27,0,.46.11.59.32l11.34,15.68.08-15.11c0-.46.24-.7.72-.7.2,0,.37.07.53.21.14.13.21.29.21.48l-.08,17.33c-.01.46-.27.7-.76.7-.22,0-.41-.09-.55-.27Z"/>
      <path class="cls-1" d="M197,125.19c-.46-.04-.7-.28-.7-.72l.08-17.5c0-.46.25-.7.76-.7l3.75.02c2.8.01,5.18.96,7.15,2.82,1.97,1.86,2.94,4.09,2.93,6.7-.01,2.59-1.01,4.8-2.99,6.64-1.97,1.83-4.34,2.74-7.12,2.74l-3.86-.02ZM200.86,123.78c2.36,0,4.38-.78,6.05-2.34,1.67-1.55,2.52-3.42,2.53-5.61.01-2.21-.81-4.1-2.49-5.69-1.67-1.57-3.69-2.37-6.05-2.4l-2.97-.02-.08,16.04,3.01.02Z"/>
      <path class="cls-1" d="M223.47,124.45l.08-17.5c0-.48.24-.72.72-.72l9.8.06c.48,0,.71.23.7.7,0,.49-.23.74-.7.74l-9.06-.04-.04,7.32,7.93.04c.46,0,.7.24.7.72s-.24.72-.72.72l-7.9-.04-.04,7.29,9.06.04c.2,0,.37.07.51.21.13.14.19.32.19.53,0,.46-.24.7-.72.7l-9.84-.04c-.44-.04-.65-.28-.65-.72Z"/>
      <path class="cls-1" d="M251.25,124.91c-.14-.14-.21-.3-.21-.49l.08-17.52c0-.44.22-.67.65-.7l5.46.02c1.5.01,2.79.56,3.86,1.62,1.07,1.07,1.59,2.35,1.58,3.84,0,1.03-.28,1.98-.84,2.87-.56.87-1.31,1.53-2.23,1.98.01.01.04.02.06.02.04.03.08.05.11.06,1.73.97,2.58,2.45,2.57,4.45.01.56.01,1.71,0,3.44,0,.04-.02.06-.06.06l-1.31.02s-.03,0-.04-.02c-.01-.01-.02-.03-.02-.04v-3.39c.01-1.29-.49-2.32-1.52-3.08-.72-.51-1.44-.82-2.17-.93-.03-.01-.06-.03-.11-.04l-.02-.02-4.55-.02-.04,7.38c0,.46-.25.7-.74.7-.2,0-.37-.07-.51-.21ZM257.3,115.66c1.08-.01,2.01-.41,2.78-1.18.77-.79,1.16-1.71,1.16-2.78.01-1.11-.37-2.06-1.16-2.85-.79-.77-1.74-1.17-2.87-1.18l-4.64-.02-.04,7.99,4.76.02ZM260.92,124.49v-1.73s0-.03.02-.04c.01-.01.03-.02.04-.02.01,0,.02,0,.02.02.31.11.64.18.99.19h.02c.08,0,.17,0,.25-.02h.02s.02,0,.02.02c.01.01.02.03.02.04v1.56c0,.46-.24.7-.72.7s-.7-.24-.7-.72Z"/>
      <path class="cls-1" d="M293.24,125c-.14-.14-.21-.31-.21-.51l.08-16.76-5.67-.04c-.48,0-.72-.25-.72-.74,0-.46.24-.7.72-.7l12.79.06c.18,0,.34.07.49.21.14.14.21.31.21.51,0,.48-.24.72-.72.72l-5.67-.02-.08,16.78c0,.46-.24.7-.72.7-.2,0-.37-.07-.51-.21Z"/>
      <path class="cls-1" d="M323.59,125.21c-.18,0-.34-.07-.49-.21s-.21-.31-.21-.51l.04-8.03-9.68-.06-.04,8.05c0,.46-.25.7-.74.7-.2,0-.37-.07-.51-.21-.14-.14-.21-.3-.21-.48l.08-17.52c0-.46.24-.7.72-.7s.74.24.74.72l-.04,8.03,9.68.06.04-8.05c0-.46.24-.7.72-.7s.74.23.74.7l-.08,17.52c0,.46-.25.7-.74.7h-.02Z"/>
      <path class="cls-1" d="M339.05,124.45l.08-17.5c0-.48.24-.72.72-.72l9.8.06c.48,0,.71.23.7.7,0,.49-.23.74-.7.74l-9.06-.04-.04,7.32,7.93.04c.46,0,.7.24.7.72s-.24.72-.72.72l-7.9-.04-.04,7.29,9.06.04c.2,0,.37.07.51.21.13.14.19.32.19.53,0,.46-.24.7-.72.7l-9.84-.04c-.44-.04-.65-.28-.65-.72Z"/>
    </g>
    <g>
      <path class="cls-1" d="M499.45,53.97c-.5.81-1.33,1.19-2.18,1.41-3.26.84-6.54,1.64-9.82,2.41-8.29,1.93-16.59,3.82-24.93,5.55-.85.18-1.66.59-2.29.83-1.03,1.13-1.31,2.35-1.61,3.55-2.39,9.64-4.81,19.28-7.15,28.93-2.67,11.03-5.27,22.08-7.91,33.13-1.52,6.39-3.04,12.77-4.56,19.15-1.35,5.7-2.68,11.4-4.06,17.08-.25,1.03-.68,2.01-1.12,2.98-.11.26-.54.4-.84.54-.35.17-1.04-.5-1.07-.97-.02-.35-.09-.71-.07-1.06.04-.53.12-1.06.24-1.58,1.02-4.5,2.01-9,3.08-13.49,2.02-8.45,4.08-16.9,6.13-25.34,3.05-12.58,6.11-25.17,9.16-37.75,1.88-7.75,3.73-15.51,5.59-23.25-.24-.29-.45-.55-.66-.81-.35-.02-.71-.05-1.06-.05-2.72-.03-4.66,1.15-6.18,3.45-4.1,6.23-8.28,12.43-12.57,18.53-8.18,11.63-16.46,23.19-25.25,34.37-2.64,3.35-5.23,6.74-7.83,10.12-.21.27-.32.63-.47.93-.23.75.07,1.4.3,2.07.71,2,1.32,4.04,1.93,6.08.93,3.1.89,6.33,1.56,9.45.07.34.06.71.03,1.06-.49,6.41-1.5,12.68-4.58,18.46-1.59,2.99-3.37,5.88-5.49,8.5-4.49,5.56-9.59,10.5-15.59,14.45-3.14,2.06-6.52,3.64-10.17,4.54-1.96.48-3.88.33-5.7-.63-1.87-.98-3.01-2.45-3.17-4.6-.19-2.51.1-4.93.95-7.33,1.67-4.73,4.09-9.06,6.74-13.28,3.41-5.42,7.26-10.54,11.18-15.59,5.45-7.02,10.99-13.97,16.48-20.95.66-.84,1.37-1.67,1.14-3.36-.37-1.43-1.42-3.1-2.45-4.74-2.18-3.46-4.53-6.79-7.19-9.92-3.59-4.21-7.47-8.08-11.59-11.77-5.17-4.62-10.47-9.09-15.71-13.62-3.91-3.38-7.58-6.99-10.67-11.15-1.71-2.3-3.08-4.78-4.15-7.42-1.71-4.22-2.07-8.54-1.17-13.05,1.13-5.67,3.47-10.81,6.44-15.69,5.7-9.35,13.02-17.32,21.31-24.4,3.78-3.23,7.79-6.21,11.99-8.88,6.02-3.82,12.31-7.08,19.18-9.13,3.95-1.18,7.93-1.85,12.07-1.71,1.99.06,3.88.43,5.72,1.1,3.19,1.16,5.41,3.33,6.65,6.48.26.65.47,1.37.49,2.06.04,1.77.02,3.55-.11,5.32-.07.91-.61,1.65-1.56,2-.76-.09-1.29-.47-1.36-1.29-.03-.35-.04-.73.09-1.05.78-1.95.33-3.84-.21-5.74-.86-3.08-3.02-4.71-5.97-5.45-.69-.17-1.41-.21-2.11-.28-6.34-.6-12.36.62-18.18,3.12-6.9,2.96-13.32,6.72-19.33,11.19-6.88,5.12-12.98,11.08-18.59,17.53-4.1,4.71-7.59,9.86-10.3,15.5-.62,1.28-1.17,2.59-1.73,3.9-1.98,4.54-2.22,9.29-1.67,14.12.08.7.28,1.4.53,2.06,1.46,3.85,3.38,7.44,6.19,10.5,3.49,3.8,7.21,7.37,11.16,10.7,5.57,4.7,11.18,9.35,16.39,14.47,4.18,4.12,8.29,8.3,11.8,13.03,1.8,2.43,3.48,4.94,4.97,7.57.44.77.79,1.59,1.54,2.13.33-.09.74-.08.93-.28,2.66-2.64,4.73-5.77,7.02-8.71,8.98-11.49,17.44-23.35,25.84-35.26,3.89-5.51,7.69-11.09,11.29-16.75-.62-.71-1.33-.66-2.01-.54-1.74.32-3.48.68-5.21,1.05-8.84,1.9-17.73,3.57-26.53,5.7-3.62.87-7.25,1.71-10.88,2.52-.93.21-1.74-.15-2.4-.83-.46-.48-.2-1.64.39-1.8.17-.04.32-.18.48-.19,4.3-.17,8.36-1.61,12.49-2.59,7.94-1.88,15.93-3.52,23.92-5.14,4-.81,7.98-1.67,12.5-2.61.59-.75,1.19-1.41,1.67-2.14,4.93-7.6,9.75-15.28,14.05-23.26,1.09-2.03,1.89-4.2,2.88-6.29.38-.79.88-1.53,1.34-2.27.21-.34,1.11-.56,1.46-.37.43.23.88.92.83,1.27-.03.17-.01.36-.06.53-.09.34-.16.7-.31,1.01-3.75,7.91-5.92,16.33-8.17,24.73-.28,1.02-.56,2.05-.74,3.09-.04.23.35.53.64.92,7.02-1.61,14.09-3.31,21.2-4.83,4.86-1.04,9.69-2.16,14.49-3.46.17-.05.35-.01.53-.04.74-.12,1.24.33,1.72,1.54ZM400.36,137.47c-.13-.47-.6-.84-.91-1.25-.34.24-.66.38-.86.62-1.89,2.35-3.74,4.74-5.65,7.08-5.28,6.47-10.38,13.08-15.33,19.8-3.58,4.87-6.98,9.86-9.88,15.17-1.71,3.13-3.02,6.42-3.9,9.88-.26,1.04-.26,2.1.06,3.16.48,1.59,1.5,2.39,3.06,2.49,2.17.13,4.26-.19,6.21-1.18,1.89-.97,3.84-1.88,5.6-3.05,5.2-3.46,9.83-7.54,13.79-12.43,4.9-6.05,8.49-12.61,9.81-20.38.63-3.73.72-7.45.17-11.13-.45-2.97-1.39-5.86-2.18-8.77ZM459.43,51.54c-1.91,2.25-3.16,4.94-4.84,7.35-.5.71-1.11,1.39-1.24,2.3.2.26.35.7.58.74,1.05.18,2.1.16,3.01-.52.19-.3.43-.57.55-.88.89-2.31,1.41-4.73,1.93-7.14.13-.59.03-1.22,0-1.85ZM459.95,50.92c-.07.09-.15.17-.22.26.02,0,.05-.01.07-.02.07-.04.1-.15.15-.23Z"/>
      <path class="cls-1" d="M524.3,113.21c-.1.34-.15.71-.31,1.01-3.98,7.75-7.39,15.76-10.64,23.83-.93,2.3-2.07,4.53-3.26,6.7-1.06,1.93-2.62,3.35-4.91,3.79-1.57-.13-2.59-1.09-3.26-2.4-.73-1.43-1.26-2.94-1.3-4.58-.12-4.98-.18-9.92.72-14.88.57-3.13.92-6.32,1.43-9.47s.92-6.32,1.52-9.46c.96-5.1,1.12-10.24.74-15.4-.06-.88-.21-1.78-.49-2.61-.84-2.47-2.41-4.34-4.84-5.39-1.63-.71-3.32-1.24-5.09-1.47-.61-.08-.94.36-1.26.79-.83,6.68-1.6,13.38-3.26,19.94-1.53,6.03-3.32,11.98-5.67,17.74-1.41,3.46-3.09,6.8-5.34,9.81-.97,1.29-2.11,2.37-3.57,3.15-2.33,1.24-4.69.66-5.92-1.63-1.2-2.21-1.94-4.58-2.05-7.1-.14-3.02-.19-6.04-.26-9.07-.02-.71,0-1.41,0-2.2-.42.13-.79.14-.92.32-.31.42-.56.9-.72,1.39-.94,2.87-1.91,5.73-3.29,8.43-.73,1.42-1.53,2.81-2.36,4.18-.56.92-1.37,1.6-2.28,2.2-2.33,1.52-4.51.77-5.62-1.84-.96-2.27-1.57-4.72-1.19-7.28.16-1.05.38-2.1.47-3.16.45-5.59,2.39-10.71,4.94-15.64,1-1.92,2.34-3.55,3.96-4.98,1.25-1.11,2.7-1.68,4.37-1.69.18,0,.36-.01.53-.01,2.78-.04,4.79,1.14,5.87,3.74.33.81.59,1.65.97,2.74-.88.97-1.47,1.61-2.12,2.33,0,4.93.04,9.91-.01,14.89-.03,3.05.69,5.99,1.19,8.97.14.83.73,1.59,1.16,2.35.27.49,1.42.74,1.94.45.46-.26.94-.5,1.33-.86,1.18-1.09,2.17-2.33,2.96-3.75,1.55-2.8,2.95-5.67,4.08-8.67,2.5-6.66,4.59-13.45,5.94-20.43.81-4.17,1.7-8.36,1.64-12.66-.01-.69-.08-1.38-.11-1.95-.42-.33-.67-.66-.97-.72-1.74-.38-3.48-.74-5.23-1.02-1.28-.2-2.37-.75-3.35-1.54-2.28-1.84-2.72-4.16-1.86-6.7.45-1.33,1.24-2.55,1.97-3.76.56-.92,1.42-1.56,2.37-2.1,2.85-1.63,6.17-.88,7.93,1.88,1.36,2.14,2.02,4.52,2.33,7.02.11.88,0,1.78.36,2.62.33.73.99.99,1.68,1.16,1.2.3,2.43.51,3.63.81,3.08.79,5.38,2.7,7.13,5.27,1.33,1.95,2.04,4.18,2.14,6.51.19,4.26.27,8.51-.61,12.74-.69,3.3-1,6.67-1.53,10-.56,3.5-1.2,6.99-1.77,10.5-.17,1.05-.22,2.12-.32,3.18-.11,1.24-.05,2.52-.35,3.71-.96,3.76-.29,7.41.57,11.06.13.57.34.74,1.47,1.26,1.05-.42,1.7-1.31,2.19-2.24,1.08-2.04,2.18-4.09,3.02-6.23,2.46-6.29,5.25-12.43,8.05-18.57.96-2.1,1.94-4.19,3.38-6.03.57-.73,1.57-.5,2.01.48.07.15.05.34.07.52ZM468.13,100.43c-1.64-1.89-3.74-2.09-5.62-.55-1.53,1.25-2.75,2.73-3.73,4.45-2.5,4.37-3.88,9.13-4.76,14.03-.47,2.61-.45,5.31.01,7.95.15.87.57,1.67,1.5,2.06.16-.01.37.04.51-.04.44-.28.97-.52,1.26-.92,1.13-1.58,2.26-3.17,2.93-5.04.96-2.67,2.06-5.28,2.98-7.96,1.21-3.52,2.3-7.08,3.47-10.71.66-.5.97-.69,1.22-.93.75-.73.83-1.66.24-2.34ZM490.14,77.33c-.16-3.32-.32-3.94-1.55-6.03-.93-1.58-3.11-2.07-4.58-1.03-1.85,1.31-2.84,3.09-2.73,5.38.05,1.1.55,2.01,1.59,2.55,1.92,1.01,3.96,1.38,6.12,1.15.4-.04,1.05-.62,1.08-.99.02-.35.05-.7.08-1.05Z"/>
      <path class="cls-1" d="M547.28,115.41c-1.62,1.08-3.26,2.16-4.87,3.25-.66.45-1.29.94-1.84,1.35.33,1.28.75,2.46.91,3.67.34,2.55-.11,5.04-1.03,7.43-2.52,6.56-6.55,11.97-12.38,15.97-1.47,1.01-3.09,1.76-4.87,2.08-1.77.32-3.47.12-4.93-1.04-1.85-1.48-2.17-3.47-1.82-5.66.22-1.41.77-2.72,1.41-4,1.13-2.24,2.64-4.21,4.28-6.09,2.94-3.36,6.3-6.26,9.77-9.04,1.56-1.25,3.13-2.47,4.76-3.76-1.23-1.25-2.67-1.99-4.2-2.58-2.45-.96-5.05-1.34-7.6-1.89-1.82-.39-3.65-.8-5.39-1.42-2.42-.86-4.02-2.57-4.41-5.21-.19-1.3.03-2.57.39-3.81.85-2.95,2.36-5.55,4.18-7.98,2.59-3.45,5.63-6.41,9.4-8.56,1.91-1.09,3.91-1.93,6.17-1.88,3.69.08,4.83,3.25,3.86,6.15-.09.28-.31.55-.53.75-.73.65-1.78.28-1.91-.7-.06-.47,0-.98.09-1.46.25-1.27-.29-2.12-1.79-2.09-1.66.04-3.14.65-4.51,1.48-5.44,3.29-9.5,7.83-11.97,13.72-.4.96-.6,2.04-.73,3.09-.23,1.88.67,3.23,2.38,3.88,1.48.57,3.04.95,4.59,1.32,1.98.48,4,.8,5.97,1.3,3.78.96,5.31,1.78,8.22,4.19,1.97-1.35,3.93-2.72,5.92-4.04.58-.39,1.24-.67,1.89-.97.64-.3,1.21-.15,1.67.34.34,1.11-.32,1.69-1.09,2.21ZM538.22,121.74c-1.27.99-2.42,1.89-3.57,2.79-3.66,2.89-7.24,5.87-10.35,9.38-1.84,2.07-3.49,4.26-4.6,6.81-.5,1.16-.79,2.36-.67,3.63.11,1.18.96,2.09,2.13,2.2.65.06,1.34.01,1.98-.13,1.72-.39,3.2-1.3,4.59-2.34,2.77-2.07,5.03-4.63,6.93-7.5,2.08-3.13,3.73-6.45,4.23-10.25.2-1.54.02-2.99-.68-4.6Z"/>
    </g>
  </g>
</svg>