<?xml version="1.0" encoding="UTF-8"?>
<svg id="Layer_2" data-name="Layer 2" xmlns="http://www.w3.org/2000/svg" viewBox="0 0 445.95 186.48">
  <defs>
    <style>
      .cls-1 {
        fill: #a17f4d;
      }
    </style>
  </defs>
  <g id="Layer_1-2" data-name="Layer 1">
    <g>
      <path class="cls-1" d="M10.63,186.25h-.02s-.08-.06-.09-.09l-9.29-12.88-.05,12.57c-.01.38-.21.58-.59.58-.16,0-.3-.06-.42-.17s-.17-.26-.17-.42l.07-14.24c-.07-.26,0-.47.23-.64.1-.07.22-.1.35-.1.22,0,.38.09.49.26l9.38,12.97.07-12.5c0-.38.2-.58.59-.58.16,0,.31.06.44.17.12.1.17.24.17.4l-.07,14.33c-.01.38-.22.58-.63.58-.19,0-.34-.08-.45-.23Z"/>
      <path class="cls-1" d="M25.57,186.3c-.12-.12-.17-.26-.17-.42l.07-14.38c0-.2.08-.35.24-.45,0-.01.01-.02.03-.04.01,0,.02,0,.02-.02.1-.07.22-.1.35-.1.21,0,.37.09.49.26v.02l.07,1.95-.07,12.78c0,.38-.2.58-.59.58-.17,0-.32-.06-.44-.17Z"/>
      <path class="cls-1" d="M48.16,186.48c-2.28-.02-4.21-.81-5.8-2.35-1.6-1.56-2.4-3.44-2.39-5.65.01-2.16.82-4.02,2.42-5.56,1.62-1.53,3.55-2.3,5.8-2.3h.05c1.89.01,3.6.61,5.12,1.79.13.09.2.23.21.4.01.16-.04.3-.14.42-.12.14-.27.21-.47.21-.13,0-.26-.04-.38-.12-1.22-1-2.67-1.5-4.34-1.52h-.05c-1.93,0-3.58.65-4.95,1.95-1.37,1.31-2.06,2.89-2.07,4.74-.01,1.86.67,3.46,2.04,4.79,1.37,1.33,3.03,1.99,4.97,2h.03c1.51,0,2.87-.43,4.08-1.29l.02-4.5-4.24-.02c-.42,0-.62-.2-.61-.59,0-.39.2-.59.61-.59l4.93.02c.36.04.54.24.54.61l-.03,5.42c-.04.2-.11.34-.23.44-1.46,1.13-3.16,1.69-5.07,1.69h-.05Z"/>
      <path class="cls-1" d="M77.59,186.48c-.15,0-.28-.06-.4-.17s-.17-.26-.17-.42l.04-6.64-8-.05-.04,6.66c0,.38-.2.58-.61.58-.16,0-.3-.06-.42-.17s-.17-.25-.17-.4l.07-14.49c0-.38.2-.58.59-.58s.61.2.61.59l-.03,6.64,8,.05.04-6.66c0-.38.2-.58.59-.58s.61.19.61.58l-.07,14.49c0,.38-.2.58-.61.58h-.02Z"/>
      <path class="cls-1" d="M97.3,186.3c-.12-.12-.17-.26-.17-.42l.07-13.86-4.69-.03c-.39,0-.59-.2-.59-.61,0-.38.2-.58.59-.58l10.58.05c.15,0,.29.06.4.17s.17.26.17.42c0,.4-.2.59-.59.59l-4.69-.02-.07,13.88c0,.38-.2.58-.59.58-.16,0-.3-.06-.42-.17Z"/>
      <path class="cls-1" d="M129.62,186.48c-1.77-.01-3.27-.64-4.52-1.88s-1.86-2.74-1.85-4.48l.05-8.73c0-.38.19-.58.58-.58.19,0,.34.06.45.17.12.12.17.26.17.42l-.05,8.72c-.01,1.41.49,2.61,1.5,3.63,1.01,1.01,2.23,1.53,3.66,1.55,1.45,0,2.69-.5,3.71-1.52,1.03-1,1.55-2.2,1.55-3.61l.05-8.72c0-.39.2-.59.59-.59.16,0,.31.06.44.17.12.12.17.26.17.42l-.05,8.73c-.01,1.73-.64,3.21-1.9,4.45-1.25,1.23-2.77,1.85-4.53,1.85h-.03Z"/>
      <path class="cls-1" d="M161.63,186.25h-.02s-.08-.06-.09-.09l-9.29-12.88-.05,12.57c-.01.38-.21.58-.59.58-.16,0-.3-.06-.42-.17s-.17-.26-.17-.42l.07-14.24c-.07-.26,0-.47.23-.64.1-.07.22-.1.35-.1.22,0,.38.09.49.26l9.38,12.97.07-12.5c0-.38.2-.58.59-.58.16,0,.31.06.44.17.12.1.17.24.17.4l-.07,14.33c-.01.38-.22.58-.63.58-.19,0-.34-.08-.45-.23Z"/>
      <path class="cls-1" d="M177.19,186.46c-.38-.04-.58-.23-.58-.59l.07-14.47c0-.38.21-.58.63-.58l3.1.02c2.31.01,4.28.79,5.91,2.33,1.63,1.53,2.43,3.38,2.42,5.54-.01,2.14-.84,3.97-2.48,5.49-1.63,1.51-3.59,2.27-5.89,2.27l-3.19-.02ZM180.38,185.29c1.95,0,3.62-.64,5-1.93,1.38-1.28,2.08-2.82,2.09-4.64.01-1.82-.67-3.39-2.06-4.71-1.38-1.3-3.05-1.96-5-1.99l-2.46-.02-.07,13.26,2.49.02Z"/>
      <path class="cls-1" d="M200.86,185.85l.07-14.47c0-.4.2-.59.59-.59l8.11.05c.39,0,.59.19.58.58,0,.41-.19.61-.58.61l-7.5-.03-.03,6.05,6.55.03c.38,0,.58.2.58.59s-.2.59-.59.59l-6.54-.04-.04,6.03,7.5.03c.16,0,.3.06.42.17.1.12.16.26.16.44,0,.38-.2.58-.59.58l-8.14-.04c-.36-.03-.54-.23-.54-.59Z"/>
      <path class="cls-1" d="M225.62,186.23c-.12-.12-.17-.25-.17-.4l.07-14.49c0-.36.18-.55.54-.58l4.51.02c1.24.01,2.31.46,3.19,1.34.88.88,1.32,1.94,1.31,3.17,0,.85-.23,1.64-.7,2.37-.47.72-1.08,1.27-1.85,1.64.01.01.03.02.05.02.04.02.06.04.09.05,1.43.8,2.14,2.03,2.13,3.68.01.46.01,1.41,0,2.84,0,.04-.02.05-.05.05l-1.08.02s-.02,0-.04-.02c-.01-.01-.02-.02-.02-.04v-2.81c.01-1.07-.41-1.92-1.25-2.54-.59-.42-1.19-.67-1.8-.77-.02-.01-.05-.02-.09-.03l-.02-.02-3.76-.02-.04,6.1c0,.38-.2.58-.61.58-.16,0-.3-.06-.42-.17ZM230.62,178.58c.89-.01,1.66-.34,2.3-.98.64-.65.96-1.42.96-2.3.01-.92-.31-1.7-.96-2.35-.65-.64-1.44-.96-2.37-.98l-3.83-.02-.03,6.61,3.94.02ZM233.62,185.89v-1.43s0-.02.02-.03.02-.02.04-.02c.01,0,.02,0,.02.02.26.09.53.15.82.16h.02c.07,0,.14,0,.21-.02h.02s.02,0,.02.02c.01.01.02.02.02.04v1.29c0,.38-.2.58-.59.58s-.58-.2-.58-.59Z"/>
      <path class="cls-1" d="M263.92,186.3c-.12-.12-.17-.26-.17-.42l.07-13.86-4.69-.03c-.39,0-.59-.2-.59-.61,0-.38.2-.58.59-.58l10.58.05c.15,0,.29.06.4.17s.17.26.17.42c0,.4-.2.59-.59.59l-4.69-.02-.07,13.88c0,.38-.2.58-.59.58-.16,0-.3-.06-.42-.17Z"/>
      <path class="cls-1" d="M290.79,186.48c-.15,0-.28-.06-.4-.17s-.17-.26-.17-.42l.04-6.64-8-.05-.04,6.66c0,.38-.2.58-.61.58-.16,0-.3-.06-.42-.17s-.17-.25-.17-.4l.07-14.49c0-.38.2-.58.59-.58s.61.2.61.59l-.03,6.64,8,.05.04-6.66c0-.38.2-.58.59-.58s.61.19.61.58l-.07,14.49c0,.38-.2.58-.61.58h-.02Z"/>
      <path class="cls-1" d="M305.37,185.85l.07-14.47c0-.4.2-.59.59-.59l8.11.05c.39,0,.59.19.58.58,0,.41-.19.61-.58.61l-7.5-.03-.03,6.05,6.55.03c.38,0,.58.2.58.59s-.2.59-.59.59l-6.54-.04-.04,6.03,7.5.03c.16,0,.3.06.42.17.1.12.16.26.16.44,0,.38-.2.58-.59.58l-8.14-.04c-.36-.03-.54-.23-.54-.59Z"/>
      <path class="cls-1" d="M344.55,186.48c-1.89-.02-3.74-.78-5.54-2.28-.26-.23-.28-.48-.07-.75.1-.14.24-.21.4-.21.13,0,.24.05.33.14,1.59,1.34,3.21,2,4.86,2h.05c1.29,0,2.37-.33,3.24-.99.85-.63,1.28-1.38,1.29-2.27,0-.83-.4-1.52-1.2-2.09-.78-.55-1.92-.97-3.43-1.27h-.03c-1.53-.3-2.72-.75-3.56-1.34-1.05-.71-1.56-1.63-1.55-2.75,0-1.17.53-2.16,1.6-2.95,1-.74,2.2-1.12,3.61-1.12h.04c1.34,0,2.89.61,4.65,1.83.28.2.33.45.14.75-.09.16-.23.24-.42.24-.12,0-.21-.03-.3-.1-1.6-1.09-2.96-1.64-4.08-1.66h-.04c-1.17,0-2.17.3-3,.91-.78.59-1.17,1.29-1.17,2.09.01.73.37,1.35,1.08,1.85.7.5,1.76.89,3.19,1.19h.04c1.65.33,2.93.81,3.83,1.45,1.1.77,1.66,1.76,1.66,2.98-.01,1.24-.59,2.29-1.73,3.15-1.09.8-2.38,1.2-3.87,1.2h-.04Z"/>
      <path class="cls-1" d="M368.42,186.3c-.12-.12-.17-.26-.17-.42l.07-13.86-4.69-.03c-.39,0-.59-.2-.59-.61,0-.38.2-.58.59-.58l10.58.05c.15,0,.29.06.4.17s.17.26.17.42c0,.4-.2.59-.59.59l-4.69-.02-.07,13.88c0,.38-.2.58-.59.58-.16,0-.3-.06-.42-.17Z"/>
      <path class="cls-1" d="M396.45,186.09l-1.36-3.64-7.11-.04-1.39,3.63c-.1.26-.29.38-.56.38-.02,0-.06,0-.1-.02-.05-.01-.08-.02-.1-.02h-.02c-.16-.06-.27-.17-.33-.35-.07-.15-.08-.29-.02-.42l5.54-14.38c.12-.24.31-.37.59-.37.31,0,.51.12.59.37l5.39,14.43c.06.15.06.3,0,.45-.07.15-.18.26-.33.33h-.12s-.06.02-.09.02c-.28,0-.47-.13-.58-.38ZM394.65,181.27l-3.05-8.18-3.17,8.14,6.22.04Z"/>
      <path class="cls-1" d="M410.17,186.23c-.12-.12-.17-.25-.17-.4l.07-14.49c0-.36.18-.55.54-.58l4.51.02c1.24.01,2.31.46,3.19,1.34.88.88,1.32,1.94,1.31,3.17,0,.85-.23,1.64-.7,2.37-.47.72-1.08,1.27-1.85,1.64.01.01.03.02.05.02.04.02.06.04.09.05,1.43.8,2.14,2.03,2.13,3.68.01.46.01,1.41,0,2.84,0,.04-.02.05-.05.05l-1.08.02s-.02,0-.04-.02c-.01-.01-.02-.02-.02-.04v-2.81c.01-1.07-.41-1.92-1.25-2.54-.59-.42-1.19-.67-1.8-.77-.02-.01-.05-.02-.09-.03l-.02-.02-3.76-.02-.04,6.1c0,.38-.2.58-.61.58-.16,0-.3-.06-.42-.17ZM415.17,178.58c.89-.01,1.66-.34,2.3-.98.64-.65.96-1.42.96-2.3.01-.92-.31-1.7-.96-2.35-.65-.64-1.44-.96-2.37-.98l-3.83-.02-.03,6.61,3.94.02ZM418.17,185.89v-1.43s0-.02.02-.03.02-.02.04-.02c.01,0,.02,0,.02.02.26.09.53.15.82.16h.02c.07,0,.14,0,.21-.02h.02s.02,0,.02.02c.01.01.02.02.02.04v1.29c0,.38-.2.58-.59.58s-.58-.2-.58-.59Z"/>
      <path class="cls-1" d="M440.32,186.48c-1.89-.02-3.74-.78-5.54-2.28-.26-.23-.28-.48-.07-.75.1-.14.24-.21.4-.21.13,0,.24.05.33.14,1.59,1.34,3.21,2,4.86,2h.05c1.29,0,2.37-.33,3.24-.99.85-.63,1.28-1.38,1.29-2.27,0-.83-.4-1.52-1.2-2.09-.78-.55-1.92-.97-3.43-1.27h-.03c-1.53-.3-2.72-.75-3.56-1.34-1.05-.71-1.56-1.63-1.55-2.75,0-1.17.53-2.16,1.6-2.95,1-.74,2.2-1.12,3.61-1.12h.04c1.34,0,2.89.61,4.65,1.83.28.2.33.45.14.75-.09.16-.23.24-.42.24-.12,0-.21-.03-.3-.1-1.6-1.09-2.96-1.64-4.08-1.66h-.04c-1.17,0-2.17.3-3,.91-.78.59-1.17,1.29-1.17,2.09.01.73.37,1.35,1.08,1.85.7.5,1.76.89,3.19,1.19h.04c1.65.33,2.93.81,3.83,1.45,1.1.77,1.66,1.76,1.66,2.98-.01,1.24-.59,2.29-1.73,3.15-1.09.8-2.38,1.2-3.87,1.2h-.04Z"/>
    </g>
    <g>
      <g>
        <path class="cls-1" d="M280.37,37.28c-.17.03-.35,0-.52.04-4.72,1.28-9.48,2.39-14.26,3.41-6.99,1.5-13.95,3.17-20.87,4.76-.28-.39-.67-.68-.63-.91.18-1.03,5.49-16.4,5.76-17.41,2.22-8.27,4.35-16.57,8.04-24.35.15-.31.22-.66.3-1,.04-.17.03-.35.05-.52.05-.34-.4-1.03-.82-1.25-.34-.18-1.23.03-1.43.37-.46.74-.95,1.46-1.32,2.24-.97,2.05-1.76,4.2-2.83,6.19-4.23,7.86-14.01,29.78-18.87,37.27-.47.72-1.06,1.37-1.65,2.11-4.45.93-8.37,1.77-12.31,2.57-7.87,1.59-15.73,3.21-23.55,5.06-4.07.96-8.06,2.37-12.29,2.55-.16,0-.31.14-.47.19-.58.16-.84,1.3-.39,1.77.65.68,1.44,1.03,2.36.82,3.58-.8,7.15-1.63,10.71-2.49,8.66-2.09,17.41-3.74,26.12-5.61,1.71-.37,3.42-.72,5.13-1.03.67-.12,1.36-.17,1.98.53-3.54,5.57-7.29,11.06-11.11,16.49-8.26,11.73-8.92,12.47-17.76,23.77-2.26,2.89-4.3,5.97-6.91,8.57,0,0-.03.01-.04.02.73.69,1.43,1.4,2.11,2.15,2.36-3.07,4.71-6.14,7.1-9.18,8.65-11.01,9.13-11.44,17.18-22.89,4.22-6.01,8.33-12.11,12.37-18.24,1.5-2.27,3.41-3.42,6.08-3.4.35,0,.69.03,1.04.05.21.26.42.51.65.8-1.83,7.61-3.98,15.18-5.51,22.88-2.43,12.24-2.27,9.08-4.51,22.65-1.4,8.44-3.51,16.77-5.5,25.1-1.05,4.42-2.03,8.85-3.03,13.28-.12.51-.19,1.03-.23,1.55-.03.34.04.7.06,1.04.03.47.71,1.12,1.05.96.3-.14.71-.28.82-.53.43-.95.85-1.92,1.1-2.93,1.36-5.6,2.67-11.21,4-16.82,1.49-6.29,2.62-12.74,4.12-19.03.86-3.58,1.22-7.03,3.85-17.89,2.3-9.5,3.95-19.17,6.3-28.66.29-1.19.57-2.38,1.58-3.5.63-.23,1.42-.64,2.26-.82,8.21-1.71,16.38-3.56,24.54-5.47,3.23-.75,6.45-1.54,9.67-2.37.83-.22,1.65-.59,2.15-1.39-.47-1.2-.96-1.64-1.69-1.52ZM247.71,23.86c-.51,2.37-6.06,19.12-6.93,21.39-.12.31-.36.58-.55.87-.9.67-1.93.69-2.96.51-.22-.04-.38-.47-.57-.73.13-.9.73-1.57,1.22-2.27,1.65-2.37,7.91-19.38,9.8-21.6.04.61.13,1.24,0,1.82Z"/>
        <path class="cls-1" d="M248.22,21.43c-.07.08-.15.17-.22.25.02,0,.05-.01.07-.02.07-.04.1-.15.15-.23Z"/>
      </g>
      <circle class="cls-1" cx="276.12" cy="54.63" r="2.43"/>
      <circle class="cls-1" cx="187.27" cy="79.15" r="2.89"/>
      <circle class="cls-1" cx="227.68" cy="4.09" r="2.94"/>
    </g>
  </g>
</svg>