<?xml version="1.0" encoding="UTF-8"?>
<svg id="Layer_2" data-name="Layer 2" xmlns="http://www.w3.org/2000/svg" viewBox="0 0 213 159.78">
  <defs>
    <style>
      .cls-1 {
        fill: #a17f4d;
      }
    </style>
  </defs>
  <g id="Layer_1-2" data-name="Layer 1">
    <g>
      <path class="cls-1" d="M14.28.33h1.32v20.76h-1.51L1.55,2.24v18.65H.23V.33h1.61l12.44,18.69V.33Z"/>
      <path class="cls-1" d="M54.92,20.89V.33h1.38v20.56h-1.38Z"/>
      <path class="cls-1" d="M104.71,21.22c-5.86,0-9.51-4.08-9.51-10.56S99.21,0,104.74,0c2.67,0,4.84.86,6.15,1.65l-.43,1.18c-1.45-.92-3.62-1.58-5.79-1.58-4.47,0-8.06,3.32-8.06,9.41s3.22,9.31,8.13,9.31c2.14,0,4.01-.63,5.4-1.48v-6.32h-6.15v-1.22h7.5v8.19c-1.88,1.35-4.28,2.07-6.78,2.07Z"/>
      <path class="cls-1" d="M161.17,20.89v-9.71h-12.83v9.71h-1.38V.33h1.38v9.64h12.83V.33h1.38v20.56h-1.38Z"/>
      <path class="cls-1" d="M202.79,1.61v19.28h-1.38V1.61h-7.27V.33h15.92v1.28h-7.27Z"/>
      <path class="cls-1" d="M6.58,67.25c-3.13,0-4.89-1.96-4.89-5.06v-8.27h1.29v8.1c0,2.49,1.23,3.99,3.66,3.99s3.57-1.4,3.57-4.01c0,.06,0-8.08,0-8.08h1.32v8.06c0,3.24-1.69,5.26-4.95,5.26Z"/>
      <path class="cls-1" d="M59.75,53.92h1.29v13.18h-1.44l-7.48-11.3v11.18h-1.29v-13.06h1.5l7.42,11.2v-11.2Z"/>
      <path class="cls-1" d="M104.81,66.98h-3.45v-13.06h3.55c4.28,0,6.91,2.59,6.91,6.43,0,4.12-2.57,6.62-7.02,6.62ZM104.83,55.16h-2.13v10.59h2.17c3.34,0,5.62-1.71,5.62-5.29,0-3.32-2.09-5.31-5.66-5.31Z"/>
      <path class="cls-1" d="M151.44,66.98v-13.06h7.9v1.23h-6.56v4.68h5.47v1.21h-5.47v4.7h6.56v1.23h-7.9Z"/>
      <path class="cls-1" d="M200.33,66.98h-1.34v-13.06h3.51c3.22,0,4.74,1.48,4.74,3.76,0,1.96-1.34,3.15-3.03,3.68l3.61,5.62h-1.54l-3.34-5.39-2.61.17v5.22ZM202.67,60.48c1.73-.06,3.24-1.02,3.24-2.74s-1.27-2.61-3.55-2.61h-2.03v5.43l2.34-.08Z"/>
      <path class="cls-1" d="M7.73,99.68v11.38h-1.75v-11.38H1.4v-1.67h10.9v1.67h-4.57Z"/>
      <path class="cls-1" d="M110.37,111.06v-5.77h-7.17v5.77h-1.78v-13.06h1.78v5.68h7.17v-5.68h1.75v13.06h-1.75Z"/>
      <path class="cls-1" d="M199.16,111.06v-13.06h8.27v1.65h-6.5v4.03h5.41v1.65h-5.41v4.07h6.5v1.65h-8.27Z"/>
      <path class="cls-1" d="M14.6,152.17c0-2.69-2.02-3.7-6.31-4.84-3.75-1.01-7.87-2.61-7.87-7.7,0-4.42,3.58-7.41,8.8-7.41,3.03,0,5.77.76,8.29,2.31l-1.26,3.11c-2.02-1.35-4.63-2.19-6.99-2.19-3.79,0-5.34,1.73-5.34,3.91,0,2.65,2.23,3.58,6.4,4.71,3.83,1.01,7.74,2.86,7.74,7.83,0,4.54-3.75,7.87-9.26,7.87-3.07,0-6.27-.88-8.8-2.48l1.18-3.24c2.23,1.47,4.63,2.53,7.7,2.53,3.33,0,5.72-1.81,5.72-4.42Z"/>
      <path class="cls-1" d="M58.7,136.22v22.94h-3.54v-22.94h-9.22v-3.37h21.97v3.37h-9.22Z"/>
      <path class="cls-1" d="M119.59,159.15h-3.66l-2.48-6.9h-11.41l-2.48,6.9h-3.7l9.89-26.3h4.08l9.76,26.3ZM107.76,136.55l-4.54,12.46h9.05l-4.5-12.46Z"/>
      <path class="cls-1" d="M152.37,159.15h-3.58v-26.3h7.87c6.35,0,9.68,3.03,9.68,7.7,0,3.96-2.32,6.4-5.93,7.58l7.11,11.03h-4.25l-6.4-10.44-4.5.29v10.14ZM156.7,145.73c3.45-.13,6.06-1.77,6.06-5.01s-2.53-4.59-6.52-4.59h-3.87v9.72l4.33-.13Z"/>
      <path class="cls-1" d="M209.55,152.17c0-2.69-2.02-3.7-6.31-4.84-3.75-1.01-7.87-2.61-7.87-7.7,0-4.42,3.58-7.41,8.8-7.41,3.03,0,5.77.76,8.29,2.31l-1.26,3.11c-2.02-1.35-4.63-2.19-6.99-2.19-3.79,0-5.34,1.73-5.34,3.91,0,2.65,2.23,3.58,6.4,4.71,3.83,1.01,7.74,2.86,7.74,7.83,0,4.54-3.75,7.87-9.26,7.87-3.07,0-6.27-.88-8.8-2.48l1.18-3.24c2.23,1.47,4.63,2.53,7.7,2.53,3.33,0,5.72-1.81,5.72-4.42Z"/>
    </g>
  </g>
</svg>