<?xml version="1.0" encoding="UTF-8"?>
<svg id="Layer_2" data-name="Layer 2" xmlns="http://www.w3.org/2000/svg" viewBox="0 0 204.19 282.38">
  <defs>
    <style>
      .cls-1 {
        fill: #a17f4d;
      }
    </style>
  </defs>
  <g id="Layer_1-2" data-name="Layer 1">
    <g>
      <g>
        <path class="cls-1" d="M200.74,76.16c-.35.06-.72,0-1.06.09-9.64,2.61-19.36,4.87-29.14,6.97-14.29,3.06-28.5,6.48-42.62,9.72-.57-.79-1.36-1.39-1.28-1.85.36-2.1,11.22-33.51,11.77-35.57,4.53-16.89,8.88-33.84,16.43-49.74.3-.63.45-1.35.62-2.04.09-.34.06-.71.11-1.06.11-.7-.81-2.1-1.67-2.55-.69-.37-2.51.07-2.93.75-.93,1.5-1.94,2.98-2.7,4.57-1.98,4.19-3.6,8.57-5.79,12.65-8.64,16.06-28.62,60.84-38.54,76.13-.96,1.48-2.17,2.79-3.36,4.31-9.09,1.9-17.1,3.62-25.14,5.25-16.08,3.25-32.14,6.56-48.11,10.34-8.31,1.96-16.46,4.85-25.12,5.2-.33.01-.63.29-.97.38-1.19.32-1.71,2.65-.79,3.62,1.32,1.38,2.95,2.1,4.82,1.68,7.31-1.64,14.6-3.32,21.88-5.08,17.69-4.27,35.57-7.64,53.35-11.45,3.49-.75,6.98-1.46,10.49-2.11,1.36-.25,2.79-.36,4.04,1.08-7.23,11.39-14.89,22.6-22.7,33.69-16.88,23.95-18.22,25.46-36.28,48.56-4.61,5.91-8.78,12.19-14.13,17.51-.02.02-.05.03-.07.05,1.48,1.41,2.92,2.87,4.3,4.39,4.81-6.26,9.62-12.53,14.5-18.75,17.67-22.49,18.65-23.38,35.09-46.77,8.63-12.28,17.02-24.73,25.27-37.26,3.06-4.64,6.96-6.99,12.43-6.94.71,0,1.42.07,2.13.11.42.52.85,1.04,1.33,1.63-3.74,15.55-8.13,31.01-11.25,46.74-4.96,25-4.63,18.55-9.21,46.27-2.85,17.24-7.18,34.27-11.23,51.27-2.15,9.02-4.14,18.08-6.19,27.13-.24,1.04-.39,2.11-.48,3.17-.05.7.08,1.42.13,2.13.06.96,1.45,2.29,2.14,1.96.61-.29,1.45-.58,1.68-1.09.87-1.94,1.74-3.93,2.24-5.99,2.78-11.44,5.45-22.9,8.17-34.35,3.05-12.84,5.34-26.03,8.42-38.87,1.75-7.31,2.49-14.35,7.87-36.54,4.71-19.41,8.06-39.16,12.87-58.55.6-2.42,1.16-4.87,3.23-7.14,1.28-.47,2.9-1.31,4.61-1.67,16.76-3.49,33.45-7.28,50.13-11.17,6.6-1.54,13.19-3.14,19.75-4.84,1.7-.44,3.37-1.21,4.39-2.84-.95-2.45-1.96-3.35-3.45-3.1ZM134.02,48.74c-1.04,4.85-12.38,39.05-14.17,43.7-.25.64-.73,1.18-1.11,1.78-1.83,1.36-3.94,1.42-6.05,1.05-.46-.08-.78-.96-1.17-1.48.26-1.85,1.48-3.2,2.48-4.63,3.38-4.84,16.17-39.6,20.01-44.12.07,1.25.27,2.53.01,3.72Z"/>
        <path class="cls-1" d="M135.06,43.78c-.15.17-.3.34-.45.51.05-.02.1-.02.14-.05.14-.08.2-.31.3-.47Z"/>
      </g>
      <circle class="cls-1" cx="192.06" cy="111.6" r="4.97"/>
      <circle class="cls-1" cx="10.56" cy="161.69" r="5.9"/>
      <circle class="cls-1" cx="93.11" cy="8.35" r="6"/>
    </g>
  </g>
</svg>