<?xml version="1.0" encoding="UTF-8"?>
<svg id="Layer_2" data-name="Layer 2" xmlns="http://www.w3.org/2000/svg" viewBox="0 0 365.58 563.86">
  <defs>
    <style>
      path { fill: #a17f4d; }

      .cls-1 {
        stroke-width: 5px;
      }

      .cls-1, .cls-2, .cls-3, .cls-4 {
        fill: none;
        stroke: #a17f4d;
        stroke-miterlimit: 10;
      }

      .cls-2 {
        stroke-width: 5.15px;
      }

      .cls-3 {
        stroke-width: 8.01px;
      }

      .cls-3, .cls-4 {
        stroke-linecap: round;
      }

      .cls-4 {
        stroke-width: 8.5px;
      }
    </style>
  </defs>
  <g id="Layer_1-2" data-name="Layer 1">
    <path d="M247.53,89.82c-.9-2.17-2.66-4.18-4.09-6.03-1.53-1.98-3.16-3.88-4.92-5.66-3.72-3.78-7.92-7.11-12.08-10.38-8.38-6.57-17.16-12.57-26.04-18.42-4.55-3-9.07-6.05-13.7-8.9-4.56-2.81-9.33-5.54-14.44-7.19-5.09-1.64-10.48-2.24-15.79-2.67-4.24-.35-8.7-.8-12.3-3.28-6.75-4.64-4.86-14.99,1.29-19.21,7.62-5.24,17.26-3.19,24.51,1.61,1.94,1.29,3.71,2.76,5.4,4.35,2.34,2.21,5.88-1.32,3.53-3.53-7.31-6.9-16.88-11.83-27.17-10.19-9.25,1.49-16.99,8.91-16.83,18.64.09,4.72,2.12,9.13,5.89,12.02,3.89,2.99,8.82,3.98,13.61,4.42,5.21.47,10.41.86,15.47,2.34,2.51.73,4.92,1.77,7.26,2.96.36.44.7,1.07.77,1.33.05.16.09.31.13.48h0v.06c.01.16.01.32,0,.48,0,.04.01.06.01.09-.01.01-.01.03-.02.05-.18.8-.13.7-.57,1.41-.04.07-.31.47-.31.48-.26.33-.55.64-.85.93-1.88,1.85-4.56,3.26-7.02,3.97-1.67.48-3.28.52-5.06.7-2.48.26-5.63,1.67-7.99,2.7-3.72,1.63-5.51,4.42-7.69,7.84-4.37,6.85-5.13,13.75-1.92,21.02,3.06,6.92,8.53,12.37,12.56,18.65,2.63,4.12,4.48,9.89,4.92,14.75.51,5.52,2.05,8.69,3.19,14.14.23,1.09,2.73,1.01,3.78,1.05,9.27.37,13.2.66,22.47.42,2.03-.06,5.14-.85,4.36-2.57-2.1-4.63-2.32-9.86-2.45-14.86-.15-5.7-.25-11.41-.34-17.11-.05-2.87-.09-5.74-.13-8.62-.03-2.55-.22-5.17.05-7.72.17-1.55.58-3.3,1.91-4.27,1.51-1.11,3.64-.75,5.3-.25,4.55,1.35,8.52,4.79,12.19,7.67,4.04,3.16,8.14,6.23,12.6,8.79,4.34,2.48,9.22,4.85,14.16,5.84,2.09.43,5.05.09,6.2-1.95,1.05-1.87.98-4.44.17-6.38ZM243.11,93.57c-.04.15-.16.14,0,0h0Z"/>
    <path class="cls-1" d="M177.34,131.87s53.07-2.26,100.5,23.71c47.43,25.97,78.85,84.35,81.3,98.8,4.91,28.96,5.95,59.44-1.07,95.95-9.57,49.8-61.33,88.68-61.33,88.68,0,0-53.91,53.07-124.48,45.16s-131.55-49.68-145.1-78.48c-13.55-28.79-39.05-85.24-14.2-156.38,24.84-71.14,77.15-98.77,98.89-106.72,23.15-8.47,65.49-10.73,65.49-10.73Z"/>
    <path class="cls-2" d="M24.36,400.3s28.15,14.75,51.65,3c23.5-11.75,16.07-32.55,12.76-39.12-5.87-11.67-24.52-11.55-28.59-5.54-2.28,3.37-2.3,6.38-2.3,6.38"/>
    <g>
      <path class="cls-3" d="M152.76,554.68c7.53,2.56,16.68,3.71,25.28,5.18"/>
      <path class="cls-4" d="M228.5,556.41c7.96.25,15.92.5,23.89.75"/>
      <path d="M227.21,478.24c-10.42,1.51-13.04,4.61-43.05,4.2-20.57-.28-29.96-4.38-37.41-4.58,1.25,15.41,1.92,30.49,1.92,39.18,0,14.09-.35,27.11-.35,33.1v5.83c0,.68.53,1.23,1.21,1.26l5.52.25c.56.03,1.03-.41,1.06-.97l1.33-68.32s57.85,2.43,61.02,2.79c2.72.3,5.38,59.6,5.39,65.16,0,.79.67,1.42,1.47,1.36l5.15-.37c.57-.04,1.01-.53.97-1.1-.35-5.99-2.13-36.43-2.13-43.83,0-8.75-1.45-21.16-2.1-33.96Z"/>
    </g>
    <g>
      <path d="M127.52,170.13c2.93-3.69,7.39-5.9,12.12-5.85s9.23,2.79,12.53,6.24c7.07,7.39,10.85,18.11,11.53,28.19.41,6.03-.27,12.05-2.03,17.83-.73,2.41,3.03,3.44,3.76,1.04,3.45-11.32,2.97-23.81-1.34-34.83-3.92-10.02-11.58-21.39-23.34-22.31-6.01-.47-12.24,2.23-15.98,6.94-.66.83-.8,1.95,0,2.76.67.69,2.11.82,2.76,0h0Z"/>
      <path d="M223.35,155.01c-8.83,2.67-16.82,8.03-22.59,15.24-6.22,7.78-9.7,17.38-9.97,27.34-.15,5.78.8,11.6,2.81,17.02.87,2.33,4.64,1.32,3.76-1.04-3.31-8.92-3.56-18.76-.65-27.82,2.63-8.2,7.97-15.5,14.92-20.58,3.87-2.83,8.16-5.01,12.76-6.4,2.4-.73,1.38-4.49-1.04-3.76h0Z"/>
      <path d="M156.86,212.34c-35.86,3.69-51.28,6.37-57.65,7.04-6.37.67-4.71,1.23-13.24,1.42-8.07.18-11.82,1.55-13.77,3.49-1.16,1.16-2.82,2.8-3.83,8.83-1.01,6.03-1.02,14.44-1.02,14.44l8.34,1.36s.05-9.09,1.73-12.45c1.68-3.35,7.27-6.64,10.29-6.56,3.96.11,14.1,4.16,19.46,10.87s23.72,27.27,31.76,47.38,16.25,42.22,19.27,63.01c3.02,20.78,4.69,50.21,4.69,63.62s-.34,25.81-.34,31.51v5.55c0,.64.51,1.17,1.15,1.2l5.26.24c.53.02.98-.39,1.01-.92l1-25.18s32.46-.34,35.48,0c2.59.29,2.79,18.83,2.79,24.12,0,.76.64,1.35,1.4,1.29l4.91-.35c.54-.04.96-.5.92-1.05-.34-5.7-2.03-34.68-2.03-41.72,0-12.5-3.12-32.8-2.08-50.51,1.87-31.75,11.05-67.94,18.22-91.12,9.8-31.7,19.92-36.57,47.56-40.19,6.24-.82,7.42,13.83,7.42,13.83l8.67-.53s1.36-3.49-1.63-10.19c-2.75-6.16-6.03-9.39-9.72-11.73-3.69-2.35-2.01-2.35-11.06-.34-9.05,2.01-9.39,2.68-23.46,1.01-14.08-1.68-32.85-5.03-37.54-5.7s-9.39-1.68-14.41-2.01c-5.03-.34-20.78.67-26.48.34s-13.07,0-13.07,0Z"/>
      <path d="M180.78,173.4s2.85-.12,5.41,1.28c2.55,1.4,4.24,4.54,4.37,5.32.26,1.56.32,3.2-.06,5.16-.52,2.68-3.3,4.77-3.3,4.77,0,0-2.9,2.85-6.7,2.43s-7.08-2.67-7.81-4.22-2.1-4.59-.76-8.41,4.15-5.31,5.32-5.74c1.25-.46,3.52-.58,3.52-.58Z"/>
    </g>
  </g>
</svg>